<?xml version="1.0" encoding="utf-8"?>
<svg width="16px" height="16px" viewBox="0 0 16 16" version="1.1" xmlns:xlink="http://www.w3.org/1999/xlink" xmlns="http://www.w3.org/2000/svg">
  <desc>Created with Lunacy</desc>
  <g id="tableOfContents-instance">
    <g id="buttonDropTriangle" transform="translate(9 11.99998)">
      <path d="M0 0L6 0L6 3L0 3L0 0Z" id="frame" fill="none" stroke="none" />
      <path d="M3 3L6 0L0 0L3 3Z" transform="translate(0 7.629395E-06)" id="Shape" fill="#6E6E6E" stroke="none" />
    </g>
    <g id="listFiles">
      <path d="M0 0L16 0L16 16L0 16L0 0Z" id="frame" fill="none" stroke="none" />
      <g id="Group" transform="translate(2 3)">
        <path d="M0 0L12 0L12 2L0 2L0 0Z" id="Shape" fill="#6E6E6E" stroke="none" />
        <path d="M0 0L12 0L12 2L0 2L0 0Z" transform="translate(0 4)" id="Shape" fill="#6E6E6E" stroke="none" />
        <path d="M0 0L6 0L6 2L0 2L0 0Z" transform="translate(0 8)" id="Shape" fill="#6E6E6E" stroke="none" />
      </g>
    </g>
  </g>
</svg>