<?xml version="1.0" encoding="utf-8"?>
<svg width="16px" height="16px" viewBox="0 0 16 16" version="1.1" xmlns:xlink="http://www.w3.org/1999/xlink" xmlns="http://www.w3.org/2000/svg">
  <desc>Created with Lunacy</desc>
  <g id="listFiles">
    <path d="M0 0L16 0L16 16L0 16L0 0Z" id="frame" fill="none" stroke="none" />
    <g id="Group" transform="translate(2 2)">
      <path d="M0 0L12 0L12 2L0 2L0 0Z" id="Shape" fill="#6E6E6E" stroke="none" />
      <path d="M0 0L12 0L12 2L0 2L0 0Z" transform="translate(0 4)" id="Shape" fill="#6E6E6E" stroke="none" />
      <path d="M0 0L6 0L6 2L0 2L0 0Z" transform="translate(0 8)" id="Shape" fill="#6E6E6E" stroke="none" />
    </g>
  </g>
  <g id="bookmark-black-shape" transform="translate(8.499466 9)">
    <g id="Group" transform="translate(0.4619904 0)">
      <path d="M5.4537 0.198333C5.39744 0.124259 5.32167 0.0700882 5.22656 0.0357247C5.16599 0.0119592 5.10251 5.55653e-05 5.03615 5.55653e-05L5.03615 0L0.501856 0C0.435527 0 0.372107 0.0119036 0.311521 0.0356691C0.216354 0.0700048 0.140614 0.124245 0.0843776 0.198278C0.0281562 0.27231 0 0.354233 0 0.444142L0 5.55587C0 5.64581 0.0281562 5.7277 0.0843776 5.8018C0.140614 5.87582 0.216354 5.93005 0.311521 5.96437C0.372046 5.98813 0.435526 6.00001 0.501856 6.00001C0.637469 6.00001 0.75711 5.95637 0.860976 5.8692L2.76902 4.18766L4.67706 5.86924C4.77803 5.9537 4.89773 5.99601 5.03614 5.99601C5.10827 5.99601 5.17173 5.98551 5.22655 5.96436C5.32165 5.93003 5.39742 5.87581 5.45369 5.80169C5.50991 5.72769 5.53801 5.64578 5.53801 5.55586L5.53801 0.444197C5.53802 0.354288 5.50987 0.272366 5.4537 0.198333L5.4537 0.198333Z" id="Shape" fill="#6E6E6E" stroke="none" />
    </g>
    <g id="Group" transform="translate(0 1)" />
    <g id="Group" transform="translate(0 1)" />
    <g id="Group" transform="translate(0 1)" />
    <g id="Group" transform="translate(0 1)" />
    <g id="Group" transform="translate(0 1)" />
    <g id="Group" transform="translate(0 1)" />
    <g id="Group" transform="translate(0 1)" />
    <g id="Group" transform="translate(0 1)" />
    <g id="Group" transform="translate(0 1)" />
    <g id="Group" transform="translate(0 1)" />
    <g id="Group" transform="translate(0 1)" />
    <g id="Group" transform="translate(0 1)" />
    <g id="Group" transform="translate(0 1)" />
    <g id="Group" transform="translate(0 1)" />
    <g id="Group" transform="translate(0 1)" />
  </g>
</svg>