<?xml version="1.0" encoding="utf-8"?>
<svg width="13px" height="13px" viewBox="0 0 13 13" version="1.1" xmlns:xlink="http://www.w3.org/1999/xlink" xmlns="http://www.w3.org/2000/svg">
  <desc>Created with Lunacy</desc>
  <g id="intentionBulb_dark">
    <path d="M0 0L13 0L13 13L0 13L0 0Z" id="frame" fill="none" stroke="none" />
    <g id="Group" transform="translate(2.4375 0.8125)">
      <path d="M0 0L4.875 0L4.875 0.8125L0 0.8125L0 0Z" transform="translate(1.625 8.9375)" id="Shape" fill="#AFB1B3" stroke="none" />
      <path d="M0 0L4.0625 0C4.0625 0.448732 3.69873 0.8125 3.25 0.8125L0.8125 0.8125C0.363769 0.8125 0 0.448731 0 0L0 0Z" transform="translate(2.03125 10.5625)" id="Shape" fill="#AFB1B3" stroke="none" />
      <path d="M8.125 3.4125C8.125 6.6625 6.5 6.47481 6.5 8.125L1.625 8.125C1.625 6.52519 0 6.6625 0 3.4125C0 1.61769 1.81919 0 4.0625 0C6.30581 0 8.125 1.61769 8.125 3.4125L8.125 3.4125Z" id="Shape" fill="#F0A732" stroke="none" />
    </g>
  </g>
  <g id="Logo-MI-UR" transform="translate(3.000061 1.538004)">
    <g id="g10" transform="matrix(1.333333 9.561294E-09 9.561294E-09 -1.333333 0 4.461995)">
      <path d="M0.617493 1.55326L0 1.55326L0 0L0.405599 0L0.405599 0.606667L0.465643 0.606667C0.545864 0.606667 0.604829 0.593611 0.642887 0.567492C0.680563 0.541019 0.710411 0.49362 0.732431 0.425324L0.868974 -1.90735e-06L1.30069 -1.90735e-06L1.11486 0.514875L1.11486 0.516003C1.06525 0.65593 0.999569 0.740601 0.918235 0.770456C1.0171 0.792512 1.09287 0.835781 1.14547 0.900681C1.19807 0.96561 1.22419 1.04807 1.22419 1.1488C1.22419 1.28501 1.17455 1.38648 1.07495 1.45327C0.975704 1.52006 0.823089 1.55326 0.617493 1.55326ZM0.4056 0.882038L0.4056 1.28016L0.50819 1.28016C0.616033 1.28016 0.695107 1.26373 0.744749 1.2309C0.794739 1.19806 0.819752 1.14658 0.819752 1.07681C0.819752 1.01187 0.797349 0.962986 0.752576 0.930522C0.707804 0.898072 0.640628 0.882038 0.551084 0.882038L0.4056 0.882038Z" transform="translate(3.347305 0.1475887)" id="path22" fill="#AFB1B3" fill-rule="evenodd" stroke="none" />
      <path d="M3.34691 1.70085C3.33103 2.61119 2.58739 3.3465 1.67324 3.3465C0.749126 3.3465 0 2.59736 0 1.67326C0 0.749152 0.749126 0 1.67324 0L1.67324 0C1.93049 0 2.17417 0.0580389 2.39194 0.161764C2.39194 0.161764 2.24346 0.230987 2.18953 0.286539C2.07859 0.401189 2.02309 0.572127 2.02309 0.798833L2.02309 1.70109L2.02309 1.70109L2.43641 1.70109L2.43641 0.798833C2.43641 0.666339 2.45616 0.571013 2.49524 0.511776C2.5347 0.452978 2.59764 0.423571 2.68402 0.423571C2.77265 0.423571 2.83965 0.45518 2.88472 0.51849C2.9298 0.581759 2.9525 0.675266 2.9525 0.798833L2.9525 1.70109L3.34691 1.70085" id="path24" fill="#AFB1B3" stroke="none" />
    </g>
  </g>
</svg>