<?xml version="1.0" encoding="utf-8"?>
<svg width="40px" height="40px" viewBox="0 0 40 40" version="1.1" xmlns:xlink="http://www.w3.org/1999/xlink" xmlns="http://www.w3.org/2000/svg">
  <desc>Created with Lunacy</desc>
  <g id="intentionBulb_dark">
    <path d="M0 0L40 0L40 40L0 40L0 0Z" id="frame" fill="none" stroke="none" />
    <g id="Group" transform="translate(7.5 2.5)">
      <path d="M0 0L15 0L15 2.5L0 2.5L0 0Z" transform="translate(5 27.5)" id="Shape" fill="#AFB1B3" stroke="none" />
      <path d="M0 0L12.5 0C12.5 1.38071 11.3807 2.49999 10 2.49999L2.5 2.49999C1.11929 2.49999 0 1.38071 0 0L0 0Z" transform="translate(6.25 32.50001)" id="Shape" fill="#AFB1B3" stroke="none" />
      <path d="M25 10.5C25 20.5 20 19.9225 20 25L5 25C5 20.0775 0 20.5 0 10.5C0 4.9775 5.5975 0 12.5 0C19.4025 0 25 4.9775 25 10.5L25 10.5Z" id="Shape" fill="#F0A732" stroke="none" />
    </g>
  </g>
  <g id="Logo-MI-UR" transform="translate(7.191589 5)">
    <g id="g10" transform="matrix(1.333333 9.561294E-09 9.561294E-09 -1.333333 0 15.70177)">
      <path d="M2.17296 5.46592L0 5.46592L0 0L1.4273 0L1.4273 2.13487L1.6386 2.13487C1.6706 2.13487 1.70035 2.13515 1.72828 2.13541C1.94674 2.13745 2.05422 2.13846 2.26232 1.99701C2.49703 1.83747 2.49993 1.73705 2.57743 1.49672L3.05792 -1.90735e-06L4.57714 -1.90735e-06L3.92318 1.81185L3.92318 1.81582C3.74861 2.30823 3.51748 2.60618 3.23127 2.71124C3.57918 2.78886 3.84581 2.94112 4.03091 3.16951C4.216 3.39799 4.30794 3.68816 4.30794 4.04265C4.30794 4.52196 4.13325 4.87903 3.78276 5.11406C3.4335 5.34909 2.89645 5.46592 2.17296 5.46592ZM1.42731 3.10389L1.42731 4.50487L1.78832 4.50487C2.16782 4.50487 2.44608 4.44705 2.62077 4.33153C2.79669 4.21599 2.88471 4.03481 2.88471 3.78929C2.88471 3.56076 2.80587 3.38875 2.64832 3.27451C2.49076 3.16032 2.25437 3.10389 1.93926 3.10389L1.42731 3.10389Z" transform="translate(11.77917 0.5193672)" id="path22" fill="#AFB1B3" fill-rule="evenodd" stroke="none" />
      <path d="M11.7778 5.98528C11.7219 9.18879 9.10503 11.7763 5.88812 11.7763C2.63618 11.7763 0 9.14011 0 5.88821C0 2.63627 2.63618 0 5.88812 0L5.88812 0C6.79341 0 7.65092 0.204239 8.41723 0.569248C8.41723 0.569248 7.89476 0.812842 7.70496 1.00833C7.31455 1.41178 7.11926 2.01331 7.11926 2.81109L7.11926 5.98614L7.11926 5.98614L8.57374 5.98614L8.57374 2.81109C8.57374 2.34485 8.64323 2.0094 8.78077 1.80094C8.91963 1.59403 9.14109 1.49055 9.44508 1.49055C9.75696 1.49055 9.99272 1.60178 10.1513 1.82457C10.31 2.04721 10.3899 2.37626 10.3899 2.8111L10.3899 5.98614L11.7778 5.98529" id="path24" fill="#AFB1B3" stroke="none" />
    </g>
  </g>
</svg>